<svg xmlns="http://www.w3.org/2000/svg" width="1060.478" height="749.579" viewBox="0 0 1060.478 749.579">
  <title>hex1</title>
  <g>
    <path d="M690.239,541.733l110-63.509,110,63.509V668.75l-110,63.508-110-63.508V541.733m-15-8.661V677.41l125,72.169,125-72.169V533.072l-125-72.168-125,72.168Z" fill="#ffcb05"/>
    <path d="M419.255,668.379l.426-127.016,110.213-63.139L639.68,542.1l-.426,127.016L529.041,732.256,419.255,668.379m-15.029,8.61,124.757,72.588,125.242-71.749.484-144.337L529.952,460.9,404.71,532.652l-.484,144.337Z" fill="#ffcb05"/>
    <path d="M150.239,541.733l110-63.509,110,63.509V668.75l-110,63.508-110-63.508V541.733m-15-8.661V677.41l125,72.169,125-72.169V533.072l-125-72.168-125,72.168Z" fill="#ffcb05"/>
    <path d="M690.8,209.287l.426-127.016L801.435,19.132,911.222,83.009,910.8,210.025l-110.212,63.14L690.8,209.287m-15.029,8.61,124.757,72.588,125.241-71.749L926.251,74.4,801.493,1.812,676.252,73.561,675.768,217.9Z" fill="#ffcb05"/>
    <path d="M420.239,81.733l110-63.509,110,63.509V208.75l-110,63.508-110-63.508V81.733m-15-8.66V217.41l125,72.169,125-72.169V73.073L530.239.9l-125,72.169Z" fill="#ffcb05"/>
    <path d="M150.8,207.476l.426-127.017L261.438,17.32,371.225,81.2,370.8,208.214,260.586,271.353,150.8,207.476m-15.029,8.61,124.757,72.588,125.241-71.749.485-144.337L261.5,0,136.255,71.749l-.484,144.337Z" fill="#ffcb05"/>
    <path d="M825.024,439.739l.427-127.016,110.212-63.14,109.786,63.878-.426,127.016L934.811,503.616,825.024,439.739M810,448.349l124.758,72.588,125.241-71.749.484-144.337L935.721,232.263,810.48,304.012,810,448.349Z" fill="#ffcb05"/>
    <path d="M555.026,438.833l.426-127.016,110.212-63.139,109.787,63.877-.426,127.016L664.812,502.71,555.026,438.833M540,447.443l124.757,72.588L790,448.282l.484-144.337L665.722,231.357,540.481,303.106,540,447.443Z" fill="#ffcb05"/>
    <path d="M285.027,437.928l.427-127.017,110.212-63.139,109.786,63.877-.426,127.017L394.814,501.805,285.027,437.928M270,446.537l124.758,72.588L520,447.376l.484-144.337L395.724,230.452,270.483,302.2,270,446.537Z" fill="#ffcb05"/>
    <path d="M15.029,437.022l.426-127.017,110.212-63.139,109.787,63.877-.426,127.017L124.815,500.9,15.029,437.022M0,445.632l124.757,72.587L250,446.47l.484-144.336L125.726,229.546.484,301.3,0,445.632Z" fill="#ffcb05"/>
  </g>
</svg>
