<svg xmlns="http://www.w3.org/2000/svg" width="1060.478" height="749.579" viewBox="0 0 1060.478 749.579">
  <title>hex2</title>
  <g>
    <path d="M690.239,541.733l110-63.509,110,63.509V668.75l-110,63.508-110-63.508V541.733m-15-8.661V677.41l125,72.169,125-72.169V533.072l-125-72.168-125,72.168Z" fill="#ffcb05"/>
    <polygon points="404.71 532.652 404.226 676.989 528.983 749.577 654.225 677.828 654.709 533.491 529.952 460.903 404.71 532.652" fill="#f2f2f2"/>
    <path d="M150.239,541.733l110-63.509,110,63.509V668.75l-110,63.508-110-63.508V541.733m-15-8.661V677.41l125,72.169,125-72.169V533.072l-125-72.168-125,72.168Z" fill="#ffcb05"/>
    <polygon points="676.252 73.561 675.768 217.897 800.525 290.485 925.766 218.736 926.25 74.399 801.493 1.811 676.252 73.561" fill="#f2f2f2"/>
    <path d="M420.239,81.733l110-63.509,110,63.509V208.75l-110,63.508-110-63.508V81.733m-15-8.661V217.41l125,72.169,125-72.169V73.072L530.239.9l-125,72.168Z" fill="#ffcb05"/>
    <path d="M150.8,207.476l.426-127.016L261.438,17.32,371.225,81.2,370.8,208.214,260.586,271.353,150.8,207.476m-15.029,8.61,124.757,72.588,125.241-71.75.485-144.336L261.5,0,136.255,71.749l-.484,144.337Z" fill="#ffcb05"/>
    <path d="M825.024,439.739l.427-127.016,110.212-63.14,109.786,63.878-.426,127.016L934.811,503.616,825.024,439.739M810,448.349l124.758,72.588,125.241-71.75.484-144.336L935.721,232.263,810.48,304.012,810,448.349Z" fill="#ffcb05"/>
    <path d="M555.026,438.833l.426-127.016,110.212-63.139,109.787,63.877-.426,127.016L664.812,502.71,555.026,438.833M540,447.443l124.757,72.588L790,448.282l.484-144.337L665.723,231.357,540.481,303.106,540,447.443Z" fill="#ffcb05"/>
    <polygon points="270.483 302.201 269.998 446.537 394.756 519.125 519.997 447.376 520.481 303.039 395.724 230.452 270.483 302.201" fill="#f2f2f2"/>
    <polygon points="0.484 301.295 0 445.632 124.757 518.219 249.999 446.47 250.483 302.134 125.726 229.546 0.484 301.295" fill="#f2f2f2"/>
  </g>
</svg>
