<svg xmlns="http://www.w3.org/2000/svg" width="1060.478" height="749.579" viewBox="0 0 1060.478 749.579">
  <title>hex3</title>
  <g>
    <polygon points="675.239 533.072 675.239 677.41 800.239 749.579 925.239 677.41 925.239 533.072 800.239 460.904 675.239 533.072" fill="#f2f2f2"/>
    <polygon points="404.71 532.652 404.226 676.989 528.983 749.577 654.225 677.828 654.709 533.491 529.952 460.903 404.71 532.652" fill="#f2f2f2"/>
    <path d="M150.239,541.733l110-63.509,110,63.509V668.75l-110,63.508-110-63.508V541.733m-15-8.661V677.41l125,72.169,125-72.169V533.072l-125-72.168-125,72.168Z" fill="#ffcb05"/>
    <polygon points="676.252 73.56 675.768 217.897 800.525 290.485 925.766 218.736 926.25 74.399 801.493 1.811 676.252 73.56" fill="#f2f2f2"/>
    <path d="M420.239,81.733l110-63.509,110,63.509V208.75l-110,63.508-110-63.508V81.733m-15-8.661V217.41l125,72.169,125-72.169V73.072L530.239.9l-125,72.168Z" fill="#ffcb05"/>
    <polygon points="136.255 71.749 135.771 216.086 260.528 288.674 385.769 216.924 386.254 72.588 261.496 0 136.255 71.749" fill="#f2f2f2"/>
    <path d="M825.024,439.739l.427-127.016,110.212-63.14,109.786,63.877-.426,127.017L934.811,503.616,825.024,439.739M810,448.349l124.758,72.587,125.241-71.749.484-144.336L935.721,232.263,810.48,304.012,810,448.349Z" fill="#ffcb05"/>
    <polygon points="540.481 303.106 539.997 447.443 664.754 520.031 789.996 448.282 790.48 303.945 665.723 231.357 540.481 303.106" fill="#f2f2f2"/>
    <polygon points="270.483 302.201 269.998 446.537 394.756 519.125 519.997 447.376 520.481 303.039 395.724 230.452 270.483 302.201" fill="#f2f2f2"/>
    <polygon points="0.484 301.295 0 445.632 124.757 518.219 249.999 446.47 250.483 302.134 125.726 229.546 0.484 301.295" fill="#f2f2f2"/>
  </g>
</svg>
